<?xml version="1.0" encoding="utf-8"?>
<!-- Generator: Adobe Illustrator 23.0.1, SVG Export Plug-In . SVG Version: 6.00 Build 0)  -->
<svg version="1.1" id="Слой_1" xmlns="http://www.w3.org/2000/svg" xmlns:xlink="http://www.w3.org/1999/xlink" x="0px" y="0px"
	 viewBox="0 0 1105.51 510.24" style="enable-background:new 0 0 1105.51 510.24;" xml:space="preserve">
<g>
	<g>
		<path d="M347.11,321.85c12.13,5.55,24.66,9.12,38.21,7.44c2.2-0.27,3.49,0.32,3.09,2.7c-2.42,14.52-7.25,27.82-19.46,37.2
			c-11.86,9.11-25.05,11.12-39.15,6.56c-5.07-1.64-9.91-4.04-14.77-6.25c-1.37-0.62-2.11-0.64-3.27,0.46
			c-13.66,13.02-29.63,21.14-48.66,22.54c-10.43,0.77-19.9-2.43-28.9-7.4c-12.89-7.11-22.58-17.54-30.87-29.45
			c-15.27-21.92-24.03-46.36-27.53-72.69c-2.42-18.19-2.7-36.43,1.23-54.51c2.9-13.32,6.56-26.37,15.96-36.83
			c7.5-8.35,16.3-14.89,27.83-16.19c13.68-1.55,25.88,2.35,36.19,11.51c3.38,3,6.36,6.48,9.3,9.93c1.81,2.12,3.19,4.59,5.12,7.43
			c-0.53,0.25-0.97,0.42-1.37,0.65c-11.87,7.07-19.16,17.91-24.26,30.31c-10.55,25.68-13.2,52.1-6.4,79.19
			c1.87,7.44,4.86,14.45,9.78,20.47c0.57,0.7,1.22,1.35,1.8,2.04c8.38,9.87,19.89,5.5,26.22-0.96c1.25-1.27,0.34-2.12-0.25-3.07
			c-4.26-6.81-7.52-14.03-9.44-21.87c-3.09-12.55-3.16-24.79,3.02-36.57c2.74-5.22,6.18-9.84,10.88-13.43
			c2.32-1.77,3.02-1.57,3.58,1.28c1.22,6.18,4.5,11.2,8.41,15.93c0.5,0.61,0.81,1.39,1.2,2.09c0.32-0.21,0.64-0.41,0.96-0.62
			c0.25-4.4,0.57-8.79,0.72-13.19c0.52-15.18,0.41-30.35-1.66-45.44c-1.57-11.47-4.28-22.65-8.1-33.57
			c-5.29-15.11-12.15-29.42-22.07-42.03c-7.83-9.97-17.61-16.94-30.81-18.05c-9.33-0.78-17.26,2.57-24.68,7.72
			c-10.86,7.55-18.37,17.98-24.87,29.24c-9.47,16.4-15.21,34.17-18.64,52.69c-5.94,32.07-4.18,63.83,4.54,95.22
			c0.31,1.13,0.64,2.31,1.23,3.3c1.36,2.28,0.88,4.09-1.05,5.7c-15.84,13.26-44.83,19.92-65,0.65
			c-6.97-6.66-11.07-15.23-14.32-24.18c-6.85-18.82-7.28-38.24-5.17-57.85c1.76-16.35,5.43-32.26,11.86-47.44
			c12.96-30.58,31.11-57.49,57.1-78.57c16.56-13.43,34.74-23.8,56.14-27.49c23.63-4.09,45.93-0.59,66.73,11.63
			c18.95,11.13,34.83,25.57,46.97,43.92c7.69,11.62,13.6,24.15,18.52,37.22c8.87,23.56,13.09,47.99,13.88,73.02
			c0.55,17.43-1.66,34.63-5.79,51.58C349.68,309.73,348.48,315.67,347.11,321.85z"/>
		<path d="M496.89,475.75c-4.23-1.53-8.09-2.48-11.53-4.25c-14.75-7.6-27.12-18.03-35.42-32.55c-11.61-20.29-12.86-41.46-3.43-62.9
			c8.75-19.92,23.96-33.92,42.55-44.5c16.86-9.59,35.23-14.69,54.29-17.37c20.45-2.88,40.73-1,60.93,2.72
			c31.25,5.75,61.46,15.02,91.29,25.83c28.15,10.21,56.15,20.94,85.05,28.94c18.46,5.11,37.13,9.54,56.22,11.47
			c27,2.73,52.59-2.43,76.48-15.33c9.85-5.32,18.12-12.82,25.5-21.12c7.36-8.27,14.22-17,21.27-25.55c0.66-0.8,1.09-1.8,1.31-2.95
			c-2.64,1.82-5.23,3.73-7.94,5.44c-9.58,6.07-19.8,10.64-31.07,12.52c-14.96,2.51-28.52,0.01-38.81-12.13
			c-5.88-6.93-8.46-15.36-8.96-24.36c-0.92-16.63,1.73-32.83,7.09-48.5c4.4-12.86,9.32-25.56,14.32-38.2
			c4.09-10.33,6.81-20.85,6.62-32.03c-0.06-3.8,0.59-4.27,4.47-4.37c13.04-0.34,24.9,3.07,35.39,10.96
			c6.87,5.16,9.63,11.86,6.72,20.06c-3.94,11.09-8.33,22.02-12.57,33.01c-4.11,10.65-8.58,21.17-12.28,31.95
			c-1.53,4.45-2.03,9.45-2.02,14.19c0.02,7.92,8.08,12.67,15.35,9.47c5.67-2.49,9.55-7.11,13.53-11.61
			c8.48-9.61,15.28-20.39,20.53-31.98c6.73-14.84,12.73-30.01,18.78-45.15c1.32-3.3,1.85-7.02,2.14-10.6
			c0.2-2.42,1.24-3.41,3.27-3.94c4.36-1.12,8.64-0.51,12.91,0.54c8.52,2.1,16.54,5.31,23.72,10.45c2.76,1.98,3.95,4.39,3.68,7.88
			c-1.5,20.13-7.05,39.25-14.45,57.87c-14.45,36.35-34.44,69.4-60.25,98.8c-10.83,12.33-24.43,21.39-38.26,30.01
			c-10.04,6.26-20.47,11.77-32.1,14.5c-12.5,2.93-25.16,4.73-38.01,5.19c-27.57,1-54.5-2.96-81.12-9.83
			c-27.08-6.99-54.18-13.88-81.33-20.6c-21.97-5.44-44.11-10-66.66-12.47c-19.65-2.15-39.29-2.56-58.58,1.87
			c-29.81,6.84-50.02,25.31-61.47,53.5c-3.66,9-7.12,18.13-7.82,27.93c-0.34,4.76,0.21,9.58,0.36,14.38
			C496.62,473.56,496.72,474.16,496.89,475.75z"/>
		<path d="M781.83,287.92c13.96,2.48,28.35,1.82,42.7-1.42c14.3-3.22,27.55-8.4,38.43-19.68c0.62,1.86,1.37,3.23,1.51,4.65
			c0.98,10.03,0.31,19.87-2.59,29.63c-2.59,8.7-7.3,16.03-13.45,22.43c-5.23,5.45-12.3,7.54-19.48,8.99
			c-13.71,2.77-27.45,2.14-41.19,0.16c-13.84-1.99-27.59-4.37-40.88-8.85c-8.68-2.93-16.76-6.95-23.22-13.69
			c-7.86-8.2-8.78-16.42-2.95-26.23c5.16-8.69,11.68-16.31,19.61-22.48c11.81-9.21,23.93-18.03,36.04-26.85
			c11.6-8.44,23.8-16.06,34.09-26.22c4.22-4.16,7-9.05,8.41-14.69c0.48-1.92,0.08-4.06,0.08-6.29
			c-21.3,12.11-44.55,15.72-67.75,19.46c-3.22,0.52-6.52,0.57-9.78,0.71c-3,0.13-3.98-1.13-3.26-4.01
			c2.47-9.92,4.62-19.94,7.55-29.72c2.78-9.26,6.98-17.9,13.99-24.92c5.03-5.05,10.96-7.45,18.08-7.4
			c14.7,0.11,29.12,2.57,43.43,5.43c11.87,2.37,23.58,5.67,35.24,9c7.98,2.28,14.74,6.99,20.76,12.63
			c8.89,8.33,10.02,18.64,7.19,29.85c-3.61,14.3-11.89,25.73-22.21,35.85c-11.1,10.89-24.08,19.28-37.22,27.4
			C810.54,270.59,796.01,279.31,781.83,287.92z"/>
		<path d="M518.83,243.08c0.96,1.08,2.29,2.02,2.86,3.3c6.2,13.99,4.51,27.31-3.53,40.11c-5.83,9.27-14.44,13.75-25.03,14.91
			c-10.51,1.16-20.09-4.5-25.65-15.37c-2.09-4.09-3.65-8.45-5.59-13.02c-0.4,0.95-0.72,1.73-1.07,2.51
			c-3.7,8.28-6.94,16.81-11.22,24.78c-7.03,13.08-18.79,18.52-33.29,17.97c-7.68-0.29-13.71-4.45-18.68-10.1
			c-6.52-7.41-10.71-16.11-14.05-25.34c-5.57-15.42-6.89-31.52-7.79-47.66c-0.67-12.05-0.65-24.15-1.18-36.21
			c-0.43-9.81-1.45-19.56-4.87-28.88c-0.74-2.02,0.38-2.77,1.9-3.1c3.98-0.87,7.96-1.91,11.99-2.28c8.76-0.79,17.55-1.29,26.34-1.73
			c2.61-0.13,5.26,0.2,7.87,0.52c4.87,0.61,8.48,4.33,9.78,9.67c2.26,9.29,2.23,18.73,1.84,28.18c-0.65,15.79-1.78,31.58-0.12,47.36
			c0.5,4.75,1.5,9.49,2.77,14.09c0.46,1.66,2.14,3.54,3.72,4.19c2.28,0.93,4.1-1.13,4.9-2.98c3.21-7.48,7.05-14.85,8.98-22.67
			c5.56-22.52,8.05-45.44,5.51-68.63c-0.58-5.31-2.57-10.51-4.31-15.64c-0.73-2.14-0.69-3.19,1.58-3.81
			c10.82-2.97,21.75-5.13,33.03-3.93c7.5,0.8,14.56,3,17.57,10.78c1.6,4.14,2.61,8.78,2.65,13.2c0.1,10.79-0.68,21.59-0.8,32.4
			c-0.14,11.97-0.1,23.95,0.22,35.91c0.09,3.36,0.98,6.86,2.26,9.98c1.47,3.58,4.76,3.75,6.91,0.47
			C516.02,249.48,517.14,246.5,518.83,243.08z"/>
		<path d="M675.49,176.22c-5.7,2.61-10.68,5.15-15.86,7.21c-13.15,5.23-26.32,10.53-40.63,11.76c-2.78,0.24-5.63,0.24-8.4-0.05
			c-0.87-0.09-2.34-1.59-2.27-2.32c0.95-9.74,1.19-19.68,3.44-29.12c3.79-15.9,14.63-24.61,31.6-26.21
			c22.97-2.16,45.53,0.29,67.35,8.03c3.55,1.26,7.02,3.09,10.12,5.24c7.36,5.11,8.65,12.46,7.04,20.79
			c-1.89,9.74-6.35,18.32-11.98,26.29c-13.05,18.47-28.04,35.25-44.61,50.63c-0.66,0.61-1.34,1.19-2.6,2.31
			c7.07,0.16,13.04-1.52,18.64-4.02c5.76-2.57,11.35-5.66,16.67-9.06c5.23-3.34,10.05-7.34,15.6-11.46c0.82,3.01,1.86,5.7,2.27,8.48
			c4.03,27.36-11.9,51.19-38.02,58.99c-18.87,5.63-37.48,4.87-55.59-3.22c-4.39-1.96-8.83-3.91-12.91-6.4
			c-7.93-4.84-9.98-10.62-7.27-19.46c2.76-9.01,7.99-16.69,13.93-23.82c15.3-18.36,30.83-36.52,46.2-54.82
			C670.69,183.04,672.83,179.81,675.49,176.22z"/>
		<path d="M588.06,239.8c1.23,1.16,2.54,1.88,3.03,2.97c1.43,3.19,3.16,6.45,3.65,9.84c1.71,11.85,0,23.29-8.1,32.52
			c-13.52,15.4-38.27,14.62-47.93-3.3c-5.04-9.35-7.25-19.25-7.61-29.72c-0.4-11.61-1.12-23.23-1.19-34.84
			c-0.07-11.34,0.64-22.67,0.78-34.02c0.17-13.41,2.01-26.82,0.25-40.25c-0.21-1.61,0.54-2.38,2.11-2.48
			c7.5-0.47,14.99-1.22,22.5-1.32c4.41-0.06,8.86,0.7,13.23,1.41c10.01,1.63,13.37,5.79,13.56,16.02
			c0.22,12.13-1.59,24.05-3.38,35.99c-1.9,12.73-3.72,25.49-5.07,38.29c-0.56,5.27,0.06,10.69,0.43,16.03
			c0.19,2.78,0.64,6.15,3.94,6.77c3.38,0.63,4.71-2.52,5.96-5.01C585.53,246.02,586.59,243.23,588.06,239.8z"/>
		<path d="M531.51,98.91c-0.74-7.02-1.43-14.04-2.25-21.05c-0.4-3.38-0.05-3.98,3.29-4.45c7.72-1.08,15.41-2.4,23.16-3.17
			c3.65-0.36,7.44-0.01,11.08,0.58c8.59,1.37,13.82,6.59,14.47,15.25c0.52,7.02-0.13,14.12-0.08,21.19
			c0.02,3.59,0.27,7.2,0.73,10.77c0.29,2.28-0.05,4.04-2.29,4.89c-3.03,1.15-6.07,2.68-9.22,3.05c-9.13,1.06-18.31,1.32-27.17-1.8
			c-2.03-0.71-3.97-1.82-5.78-3c-5.02-3.29-6.92-8.17-6.8-14.02c0.06-2.72,0.01-5.44,0.01-8.17
			C530.95,98.96,531.23,98.94,531.51,98.91z"/>
	</g>
</g>
</svg>
